LisuNew-Bold.ufo
<glyph name="exclam" format="2">
  <advance width="793"/>
  <unicode hex="0021"/>
  <outline>
    <contour>
      <point x="520" y="1016" type="line"/>
      <point x="520" y="956"/>
      <point x="492" y="760" type="qcurve"/>
      <point x="436" y="381" type="line"/>
      <point x="307" y="381" type="line"/>
      <point x="252" y="760" type="line"/>
      <point x="223" y="956"/>
      <point x="223" y="1016" type="qcurve"/>
      <point x="223" y="1284" type="line"/>
      <point x="520" y="1284" type="line"/>
    </contour>
    <contour>
      <point x="510" y="2" type="line"/>
      <point x="233" y="2" type="line"/>
      <point x="233" y="227" type="line"/>
      <point x="510" y="227" type="line"/>
    </contour>
  </outline>
</glyph>
<glyph name="dollar" format="2">
  <advance width="1210"/>
  <unicode hex="0024"/>
  <outline>
    <contour>
      <point x="1077" y="336" type="qcurve"/>
      <point x="1077" y="4"/>
      <point x="649" y="-20" type="qcurve"/>
      <point x="649" y="-205" type="line"/>
      <point x="582" y="-205" type="line"/>
      <point x="582" y="-20" type="line"/>
      <point x="170" y="-10"/>
      <point x="170" y="285" type="qcurve"/>
      <point x="170" y="328"/>
      <point x="182" y="379" type="qcurve"/>
      <point x="395" y="379" type="line"/>
      <point x="387" y="342"/>
      <point x="387" y="309" type="qcurve"/>
      <point x="387" y="137"/>
      <point x="582" y="121" type="qcurve"/>
      <point x="582" y="532" type="line"/>
      <point x="406" y="623"/>
      <point x="330" y="680" type="qcurve"/>
      <point x="186" y="791"/>
      <point x="186" y="918" type="qcurve"/>
      <point x="186" y="1075"/>
      <point x="309" y="1159" type="qcurve"/>
      <point x="412" y="1227"/>
      <point x="582" y="1235" type="qcurve"/>
      <point x="582" y="1409" type="line"/>
      <point x="649" y="1409" type="line"/>
      <point x="649" y="1235" type="line"/>
      <point x="786" y="1229"/>
      <point x="895" y="1180" type="qcurve"/>
      <point x="1036" y="1114"/>
      <point x="1036" y="995" type="qcurve"/>
      <point x="1036" y="961"/>
      <point x="1032" y="922" type="qcurve"/>
      <point x="815" y="922" type="line"/>
      <point x="819" y="944"/>
      <point x="819" y="965" type="qcurve"/>
      <point x="819" y="1081"/>
      <point x="649" y="1094" type="qcurve"/>
      <point x="649" y="729" type="line"/>
      <point x="1077" y="526"/>
    </contour>
    <contour>
      <point x="582" y="754" type="qcurve"/>
      <point x="582" y="1094" type="line"/>
      <point x="414" y="1059"/>
      <point x="414" y="932" type="qcurve"/>
      <point x="414" y="854"/>
    </contour>
    <contour>
      <point x="848" y="301" type="qcurve"/>
      <point x="850" y="379"/>
      <point x="774" y="432" type="qcurve"/>
      <point x="760" y="442"/>
      <point x="649" y="510" type="qcurve"/>
      <point x="649" y="121" type="line"/>
      <point x="846" y="154"/>
    </contour>
  </outline>
</glyph>
<glyph name="percent" format="2">
  <advance width="1841"/>
  <unicode hex="0025"/>
  <outline>
    <contour>
      <point x="1698" y="295" type="qcurve"/>
      <point x="1698" y="131"/>
      <point x="1556" y="-23"/>
      <point x="1395" y="-23" type="qcurve"/>
      <point x="1233" y="-23"/>
      <point x="1092" y="131"/>
      <point x="1092" y="295" type="qcurve"/>
      <point x="1092" y="627"/>
      <point x="1395" y="627" type="qcurve"/>
      <point x="1698" y="627"/>
    </contour>
    <contour>
      <point x="1520" y="1241" type="line"/>
      <point x="500" y="-23" type="line"/>
      <point x="334" y="-23" type="line"/>
      <point x="1352" y="1241" type="line"/>
    </contour>
    <contour>
      <point x="760" y="909" type="qcurve"/>
      <point x="760" y="745"/>
      <point x="618" y="592"/>
      <point x="457" y="592" type="qcurve"/>
      <point x="295" y="592"/>
      <point x="154" y="745"/>
      <point x="154" y="909" type="qcurve"/>
      <point x="154" y="1241"/>
      <point x="457" y="1241" type="qcurve"/>
      <point x="760" y="1241"/>
    </contour>
    <contour>
      <point x="1509" y="211" type="qcurve"/>
      <point x="1509" y="387" type="line"/>
      <point x="1509" y="545"/>
      <point x="1395" y="545" type="qcurve"/>
      <point x="1280" y="545"/>
      <point x="1280" y="387" type="qcurve"/>
      <point x="1280" y="201" type="line"/>
      <point x="1280" y="57"/>
      <point x="1393" y="57" type="qcurve"/>
      <point x="1509" y="57"/>
    </contour>
    <contour>
      <point x="573" y="825" type="qcurve"/>
      <point x="573" y="1001" type="line"/>
      <point x="573" y="1161"/>
      <point x="457" y="1161" type="qcurve"/>
      <point x="340" y="1161"/>
      <point x="340" y="1001" type="qcurve"/>
      <point x="340" y="825" type="line"/>
      <point x="340" y="672"/>
      <point x="455" y="672" type="qcurve"/>
      <point x="573" y="672"/>
    </contour>
  </outline>
</glyph>
<glyph name="parenright" format="2">
  <advance width="946"/>
  <unicode hex="0029"/>
  <outline>
    <contour>
      <point x="657" y="618" type="qcurve"/>
      <point x="657" y="373"/>
      <point x="487" y="104" type="qcurve"/>
      <point x="330" y="-147"/>
      <point x="109" y="-289" type="qcurve"/>
      <point x="10" y="-289" type="line"/>
      <point x="180" y="-119"/>
      <point x="268" y="131" type="qcurve"/>
      <point x="352" y="362"/>
      <point x="352" y="618" type="qcurve"/>
      <point x="352" y="877"/>
      <point x="270" y="1108" type="qcurve"/>
      <point x="180" y="1356"/>
      <point x="10" y="1528" type="qcurve"/>
      <point x="109" y="1528" type="line"/>
      <point x="330" y="1386"/>
      <point x="489" y="1135" type="qcurve"/>
      <point x="657" y="866"/>
    </contour>
  </outline>
</glyph>
<glyph name="asterisk" format="2">
  <advance width="1020"/>
  <unicode hex="002A"/>
  <outline>
    <contour>
      <point x="915" y="1135" type="line"/>
      <point x="831" y="1112" type="line"/>
      <point x="760" y="1124"/>
      <point x="711" y="1124" type="qcurve"/>
      <point x="651" y="1124"/>
      <point x="537" y="1092" type="qcurve"/>
      <point x="590" y="1032"/>
      <point x="651" y="987" type="qcurve"/>
      <point x="668" y="975"/>
      <point x="733" y="940" type="qcurve"/>
      <point x="778" y="918"/>
      <point x="815" y="877" type="qcurve"/>
      <point x="684" y="801" type="line"/>
      <point x="633" y="860" type="line"/>
      <point x="612" y="973"/>
      <point x="518" y="1079" type="qcurve"/>
      <point x="418" y="975"/>
      <point x="403" y="858" type="qcurve"/>
      <point x="350" y="801" type="line"/>
      <point x="221" y="877" type="line"/>
      <point x="274" y="936" type="line"/>
      <point x="403" y="985"/>
      <point x="500" y="1092" type="qcurve"/>
      <point x="385" y="1122"/>
      <point x="326" y="1122" type="qcurve"/>
      <point x="291" y="1122"/>
      <point x="207" y="1110" type="qcurve"/>
      <point x="119" y="1133" type="line"/>
      <point x="168" y="1257" type="line"/>
      <point x="254" y="1235" type="line"/>
      <point x="348" y="1151"/>
      <point x="506" y="1110" type="qcurve"/>
      <point x="504" y="1194"/>
      <point x="481" y="1272"/>
      <point x="436" y="1343" type="qcurve"/>
      <point x="436" y="1415" type="line"/>
      <point x="598" y="1415" type="line"/>
      <point x="598" y="1343" type="line"/>
      <point x="528" y="1243"/>
      <point x="526" y="1110" type="qcurve"/>
      <point x="657" y="1145"/>
      <point x="788" y="1239" type="qcurve"/>
      <point x="866" y="1260" type="line"/>
    </contour>
  </outline>
</glyph>
<glyph name="plus" format="2">
  <advance width="1208"/>
  <unicode hex="002B"/>
  <outline>
    <contour>
      <point x="1106" y="578" type="line"/>
      <point x="717" y="578" type="line"/>
      <point x="717" y="195" type="line"/>
      <point x="537" y="195" type="line"/>
      <point x="537" y="578" type="line"/>
      <point x="147" y="578" type="line"/>
      <point x="147" y="721" type="line"/>
      <point x="537" y="721" type="line"/>
      <point x="537" y="1104" type="line"/>
      <point x="717" y="1104" type="line"/>
      <point x="717" y="721" type="line"/>
      <point x="1106" y="721" type="line"/>
    </contour>
  </outline>
</glyph>
<glyph name="hyphen" format="2">
  <advance width="885"/>
  <unicode hex="002D"/>
  <outline>
    <contour>
      <point x="809" y="539" type="line"/>
      <point x="164" y="539" type="line"/>
      <point x="164" y="725" type="line"/>
      <point x="809" y="725" type="line"/>
    </contour>
  </outline>
</glyph>
<glyph name="slash" format="2">
  <advance width="862"/>
  <unicode hex="002F"/>
  <outline>
    <contour>
      <point x="729" y="1239" type="line"/>
      <point x="268" y="-23" type="line"/>
      <point x="119" y="-23" type="line"/>
      <point x="580" y="1239" type="line"/>
    </contour>
  </outline>
</glyph>
<glyph name="two" format="2">
  <advance width="1194"/>
  <unicode hex="0032"/>
  <outline>
    <contour>
      <point x="1040" y="877" type="qcurve"/>
      <point x="1040" y="674"/>
      <point x="825" y="473" type="qcurve"/>
      <point x="690" y="348"/>
      <point x="434" y="195" type="qcurve"/>
      <point x="1034" y="195" type="line"/>
      <point x="1034" y="4" type="line"/>
      <point x="158" y="4" type="line"/>
      <point x="158" y="152" type="line"/>
      <point x="426" y="338"/>
      <point x="545" y="457" type="qcurve"/>
      <point x="760" y="674"/>
      <point x="760" y="874" type="qcurve"/>
      <point x="760" y="1100"/>
      <point x="584" y="1100" type="qcurve"/>
      <point x="397" y="1100"/>
      <point x="397" y="877" type="qcurve"/>
      <point x="397" y="807"/>
      <point x="418" y="694" type="qcurve"/>
      <point x="176" y="696" type="line"/>
      <point x="152" y="797"/>
      <point x="152" y="879" type="qcurve"/>
      <point x="152" y="1241"/>
      <point x="594" y="1241" type="qcurve"/>
      <point x="788" y="1241"/>
      <point x="905" y="1159" type="qcurve"/>
      <point x="1040" y="1065"/>
    </contour>
  </outline>
</glyph>
<glyph name="six" format="2">
  <advance width="1194"/>
  <unicode hex="0036"/>
  <outline>
    <contour>
      <point x="1067" y="383" type="qcurve"/>
      <point x="1067" y="-23"/>
      <point x="612" y="-23" type="qcurve"/>
      <point x="330" y="-23"/>
      <point x="227" y="121" type="qcurve"/>
      <point x="143" y="238"/>
      <point x="143" y="532" type="qcurve"/>
      <point x="143" y="905"/>
      <point x="211" y="1036" type="qcurve"/>
      <point x="315" y="1239"/>
      <point x="651" y="1239" type="qcurve"/>
      <point x="797" y="1239"/>
      <point x="899" y="1186" type="qcurve"/>
      <point x="1028" y="1120"/>
      <point x="1028" y="989" type="qcurve"/>
      <point x="1028" y="952"/>
      <point x="1022" y="911" type="qcurve"/>
      <point x="778" y="887" type="line"/>
      <point x="782" y="922"/>
      <point x="782" y="952" type="qcurve"/>
      <point x="782" y="1106"/>
      <point x="616" y="1106" type="qcurve"/>
      <point x="418" y="1106"/>
      <point x="418" y="848" type="qcurve"/>
      <point x="418" y="633" type="line"/>
      <point x="535" y="758"/>
      <point x="698" y="758" type="qcurve"/>
      <point x="1067" y="758"/>
    </contour>
    <contour>
      <point x="793" y="387" type="qcurve"/>
      <point x="793" y="506"/>
      <point x="760" y="559" type="qcurve"/>
      <point x="717" y="627"/>
      <point x="604" y="627" type="qcurve"/>
      <point x="416" y="627"/>
      <point x="416" y="377" type="qcurve"/>
      <point x="416" y="117"/>
      <point x="604" y="117" type="qcurve"/>
      <point x="719" y="117"/>
      <point x="762" y="201" type="qcurve"/>
      <point x="793" y="262"/>
    </contour>
  </outline>
</glyph>
<glyph name="eight" format="2">
  <advance width="1194"/>
  <unicode hex="0038"/>
  <outline>
    <contour>
      <point x="1059" y="319" type="qcurve"/>
      <point x="1059" y="137"/>
      <point x="913" y="49" type="qcurve"/>
      <point x="795" y="-23"/>
      <point x="600" y="-23" type="qcurve"/>
      <point x="410" y="-23"/>
      <point x="289" y="51" type="qcurve"/>
      <point x="141" y="141"/>
      <point x="141" y="319" type="qcurve"/>
      <point x="141" y="569"/>
      <point x="457" y="641" type="qcurve"/>
      <point x="174" y="709"/>
      <point x="174" y="911" type="qcurve"/>
      <point x="174" y="1085"/>
      <point x="307" y="1169" type="qcurve"/>
      <point x="416" y="1239"/>
      <point x="600" y="1239" type="qcurve"/>
      <point x="1026" y="1239"/>
      <point x="1026" y="911" type="qcurve"/>
      <point x="1026" y="709"/>
      <point x="743" y="641" type="qcurve"/>
      <point x="1059" y="569"/>
    </contour>
    <contour>
      <point x="764" y="893" type="qcurve"/>
      <point x="764" y="1102"/>
      <point x="600" y="1102" type="qcurve"/>
      <point x="436" y="1102"/>
      <point x="436" y="893" type="qcurve"/>
      <point x="436" y="793"/>
      <point x="467" y="748" type="qcurve"/>
      <point x="504" y="692"/>
      <point x="600" y="692" type="qcurve"/>
      <point x="696" y="692"/>
      <point x="733" y="748" type="qcurve"/>
      <point x="764" y="793"/>
    </contour>
    <contour>
      <point x="780" y="346" type="qcurve"/>
      <point x="780" y="559"/>
      <point x="600" y="559" type="qcurve"/>
      <point x="420" y="559"/>
      <point x="420" y="346" type="qcurve"/>
      <point x="420" y="233"/>
      <point x="453" y="180" type="qcurve"/>
      <point x="494" y="113"/>
      <point x="600" y="113" type="qcurve"/>
      <point x="780" y="113"/>
    </contour>
  </outline>
</glyph>
<glyph name="question" format="2">
  <advance width="1090"/>
  <unicode hex="003F"/>
  <outline>
    <contour>
      <point x="946" y="1100" type="qcurve"/>
      <point x="948" y="983"/>
      <point x="924" y="874" type="qcurve"/>
      <point x="891" y="737"/>
      <point x="825" y="672" type="qcurve"/>
      <point x="748" y="594"/>
      <point x="580" y="573" type="qcurve"/>
      <point x="580" y="360" type="line"/>
      <point x="408" y="360" type="line"/>
      <point x="408" y="705" type="line"/>
      <point x="571" y="705"/>
      <point x="571" y="705" type="qcurve"/>
      <point x="604" y="705"/>
      <point x="645" y="780" type="qcurve"/>
      <point x="678" y="840"/>
      <point x="690" y="887" type="qcurve"/>
      <point x="711" y="965"/>
      <point x="698" y="1100" type="qcurve"/>
      <point x="692" y="1176"/>
      <point x="670" y="1210" type="qcurve"/>
      <point x="633" y="1270"/>
      <point x="537" y="1270" type="qcurve"/>
      <point x="385" y="1270"/>
      <point x="393" y="1092" type="qcurve"/>
      <point x="162" y="1092" type="line"/>
      <point x="172" y="1395"/>
      <point x="530" y="1386" type="qcurve"/>
      <point x="940" y="1376"/>
    </contour>
    <contour>
      <point x="618" y="2" type="line"/>
      <point x="365" y="2" type="line"/>
      <point x="365" y="227" type="line"/>
      <point x="618" y="227" type="line"/>
    </contour>
  </outline>
</glyph>
<glyph name="at" format="2">
  <advance width="1559"/>
  <unicode hex="0040"/>
  <outline>
    <contour>
      <point x="1459" y="737" type="qcurve"/>
      <point x="1459" y="555"/>
      <point x="1360" y="414" type="qcurve"/>
      <point x="1252" y="254"/>
      <point x="1076" y="254" type="qcurve"/>
      <point x="936" y="254"/>
      <point x="912" y="397" type="qcurve"/>
      <point x="820" y="254"/>
      <point x="676" y="254" type="qcurve"/>
      <point x="557" y="254"/>
      <point x="488" y="350" type="qcurve"/>
      <point x="424" y="436"/>
      <point x="424" y="559" type="qcurve"/>
      <point x="424" y="735"/>
      <point x="527" y="877" type="qcurve"/>
      <point x="641" y="1032"/>
      <point x="811" y="1032" type="qcurve"/>
      <point x="930" y="1032"/>
      <point x="1004" y="907" type="qcurve"/>
      <point x="1024" y="1012" type="line"/>
      <point x="1151" y="1012" type="line"/>
      <point x="1082" y="651" type="line"/>
      <point x="1043" y="451"/>
      <point x="1043" y="418" type="qcurve"/>
      <point x="1043" y="350"/>
      <point x="1098" y="350" type="qcurve"/>
      <point x="1227" y="350"/>
      <point x="1299" y="485" type="qcurve"/>
      <point x="1358" y="594"/>
      <point x="1358" y="735" type="qcurve"/>
      <point x="1358" y="948"/>
      <point x="1209" y="1077" type="qcurve"/>
      <point x="1067" y="1202"/>
      <point x="852" y="1202" type="qcurve"/>
      <point x="582" y="1202"/>
      <point x="261" y="870"/>
      <point x="261" y="600" type="qcurve"/>
      <point x="261" y="336"/>
      <point x="422" y="190" type="qcurve"/>
      <point x="578" y="49"/>
      <point x="844" y="49" type="qcurve"/>
      <point x="1106" y="49"/>
      <point x="1330" y="156" type="qcurve"/>
      <point x="1354" y="76" type="line"/>
      <point x="1125" y="-47"/>
      <point x="846" y="-47" type="qcurve"/>
      <point x="537" y="-47"/>
      <point x="353" y="121" type="qcurve"/>
      <point x="160" y="295"/>
      <point x="160" y="600" type="qcurve"/>
      <point x="160" y="905"/>
      <point x="545" y="1298"/>
      <point x="850" y="1298" type="qcurve"/>
      <point x="1102" y="1298"/>
      <point x="1276" y="1145" type="qcurve"/>
      <point x="1459" y="987"/>
    </contour>
    <contour>
      <point x="983" y="813" type="qcurve"/>
      <point x="983" y="831"/>
      <point x="959" y="864" type="qcurve"/>
      <point x="902" y="938"/>
      <point x="807" y="938" type="qcurve"/>
      <point x="682" y="938"/>
      <point x="615" y="805" type="qcurve"/>
      <point x="562" y="700"/>
      <point x="562" y="561" type="qcurve"/>
      <point x="562" y="350"/>
      <point x="703" y="350" type="qcurve"/>
      <point x="783" y="350"/>
      <point x="902" y="455"/>
      <point x="928" y="532" type="qcurve"/>
      <point x="936" y="557"/>
      <point x="961" y="680" type="qcurve"/>
      <point x="983" y="793"/>
    </contour>
  </outline>
</glyph>
<glyph name="A" format="2">
  <advance width="1079"/>
  <unicode hex="0041"/>
  <outline>
    <contour>
      <point x="1032" y="184" type="line"/>
      <point x="829" y="184" type="line"/>
      <point x="791" y="348" type="line"/>
      <point x="489" y="348" type="line"/>
      <point x="451" y="184" type="line"/>
      <point x="248" y="184" type="line"/>
      <point x="504" y="1040" type="line"/>
      <point x="770" y="1040" type="line"/>
    </contour>
    <contour>
      <point x="774" y="467" type="line"/>
      <point x="637" y="920" type="line"/>
      <point x="504" y="467" type="line"/>
    </contour>
  </outline>
</glyph>
<glyph name="B" format="2">
  <advance width="1051"/>
  <unicode hex="0042"/>
  <outline>
    <contour>
      <point x="991" y="403" type="qcurve"/>
      <point x="991" y="184"/>
      <point x="682" y="184" type="qcurve"/>
      <point x="301" y="184" type="line"/>
      <point x="301" y="1040" type="line"/>
      <point x="627" y="1040" type="line"/>
      <point x="760" y="1040"/>
      <point x="848" y="989" type="qcurve"/>
      <point x="954" y="928"/>
      <point x="954" y="805" type="qcurve"/>
      <point x="954" y="668"/>
      <point x="729" y="618" type="qcurve"/>
      <point x="991" y="569"/>
    </contour>
    <contour>
      <point x="758" y="788" type="qcurve"/>
      <point x="758" y="936"/>
      <point x="614" y="936" type="qcurve"/>
      <point x="496" y="936" type="line"/>
      <point x="496" y="668" type="line"/>
      <point x="637" y="668" type="line"/>
      <point x="758" y="668"/>
    </contour>
    <contour>
      <point x="782" y="422" type="qcurve"/>
      <point x="782" y="569"/>
      <point x="639" y="569" type="qcurve"/>
      <point x="496" y="569" type="line"/>
      <point x="496" y="291" type="line"/>
      <point x="647" y="291" type="line"/>
      <point x="782" y="291"/>
    </contour>
  </outline>
</glyph>
<glyph name="C" format="2">
  <advance width="1090"/>
  <unicode hex="0043"/>
  <outline>
    <contour>
      <point x="1012" y="383" type="qcurve"/>
      <point x="1010" y="268"/>
      <point x="887" y="211" type="qcurve"/>
      <point x="791" y="166"/>
      <point x="662" y="166" type="qcurve"/>
      <point x="461" y="166"/>
      <point x="293" y="346"/>
      <point x="293" y="549" type="qcurve"/>
      <point x="293" y="801"/>
      <point x="354" y="907" type="qcurve"/>
      <point x="438" y="1051"/>
      <point x="674" y="1051" type="qcurve"/>
      <point x="774" y="1051"/>
      <point x="856" y="1020" type="qcurve"/>
      <point x="967" y="979"/>
      <point x="983" y="897" type="qcurve"/>
      <point x="987" y="877"/>
      <point x="971" y="801" type="qcurve"/>
      <point x="784" y="799" type="line"/>
      <point x="793" y="860"/>
      <point x="791" y="872" type="qcurve"/>
      <point x="784" y="924"/>
      <point x="743" y="938" type="qcurve"/>
      <point x="719" y="946"/>
      <point x="657" y="946" type="qcurve"/>
      <point x="502" y="946"/>
      <point x="502" y="684" type="qcurve"/>
      <point x="502" y="506" type="line"/>
      <point x="502" y="399"/>
      <point x="524" y="346" type="qcurve"/>
      <point x="561" y="270"/>
      <point x="655" y="270" type="qcurve"/>
      <point x="825" y="270"/>
      <point x="817" y="391" type="qcurve"/>
      <point x="823" y="418"/>
      <point x="827" y="473" type="qcurve"/>
      <point x="1010" y="473" type="line"/>
      <point x="1012" y="461"/>
    </contour>
  </outline>
</glyph>
<glyph name="D" format="2">
  <advance width="1061"/>
  <unicode hex="0044"/>
  <outline>
    <contour>
      <point x="987" y="590" type="qcurve"/>
      <point x="987" y="389"/>
      <point x="911" y="293" type="qcurve"/>
      <point x="827" y="184"/>
      <point x="633" y="184" type="qcurve"/>
      <point x="297" y="184" type="line"/>
      <point x="297" y="1040" type="line"/>
      <point x="618" y="1040" type="line"/>
      <point x="987" y="1040"/>
    </contour>
    <contour>
      <point x="778" y="553" type="qcurve"/>
      <point x="778" y="848"/>
      <point x="702" y="905" type="qcurve"/>
      <point x="662" y="936"/>
      <point x="600" y="936" type="qcurve"/>
      <point x="492" y="936" type="line"/>
      <point x="492" y="291" type="line"/>
      <point x="618" y="291" type="line"/>
      <point x="778" y="291"/>
    </contour>
  </outline>
</glyph>
<glyph name="E" format="2">
  <advance width="995"/>
  <unicode hex="0045"/>
  <outline>
    <contour>
      <point x="918" y="184" type="line"/>
      <point x="301" y="184" type="line"/>
      <point x="301" y="1040" type="line"/>
      <point x="874" y="1040" type="line"/>
      <point x="874" y="924" type="line"/>
      <point x="494" y="924" type="line"/>
      <point x="494" y="678" type="line"/>
      <point x="819" y="678" type="line"/>
      <point x="819" y="567" type="line"/>
      <point x="494" y="567" type="line"/>
      <point x="494" y="299" type="line"/>
      <point x="918" y="299" type="line"/>
    </contour>
  </outline>
</glyph>
<glyph name="F" format="2">
  <advance width="940"/>
  <unicode hex="0046"/>
  <outline>
    <contour>
      <point x="862" y="926" type="line"/>
      <point x="471" y="926" type="line"/>
      <point x="471" y="659" type="line"/>
      <point x="791" y="659" type="line"/>
      <point x="791" y="549" type="line"/>
      <point x="471" y="549" type="line"/>
      <point x="471" y="184" type="line"/>
      <point x="276" y="184" type="line"/>
      <point x="276" y="1040" type="line"/>
      <point x="862" y="1040" type="line"/>
    </contour>
  </outline>
</glyph>
<glyph name="I" format="2">
  <advance width="545"/>
  <unicode hex="0049"/>
  <outline>
    <contour>
      <point x="428" y="184" type="line"/>
      <point x="248" y="184" type="line"/>
      <point x="248" y="1040" type="line"/>
      <point x="428" y="1040" type="line"/>
    </contour>
  </outline>
</glyph>
<glyph name="J" format="2">
  <advance width="901"/>
  <unicode hex="004A"/>
  <outline>
    <contour>
      <point x="819" y="367" type="line"/>
      <point x="819" y="162"/>
      <point x="532" y="162" type="qcurve"/>
      <point x="414" y="162"/>
      <point x="336" y="209" type="qcurve"/>
      <point x="242" y="266"/>
      <point x="242" y="379" type="qcurve"/>
      <point x="242" y="434"/>
      <point x="270" y="524" type="qcurve"/>
      <point x="438" y="526" type="line"/>
      <point x="428" y="465"/>
      <point x="428" y="412" type="qcurve"/>
      <point x="428" y="281"/>
      <point x="532" y="281" type="qcurve"/>
      <point x="625" y="281"/>
      <point x="625" y="377" type="qcurve"/>
      <point x="625" y="1034" type="line"/>
      <point x="819" y="1034" type="line"/>
    </contour>
  </outline>
</glyph>
<glyph name="P" format="2">
  <advance width="1063"/>
  <unicode hex="0050"/>
  <outline>
    <contour>
      <point x="987" y="741" type="qcurve"/>
      <point x="987" y="487"/>
      <point x="647" y="487" type="qcurve"/>
      <point x="561" y="487"/>
      <point x="489" y="496" type="qcurve"/>
      <point x="489" y="184" type="line"/>
      <point x="295" y="184" type="line"/>
      <point x="295" y="1040" type="line"/>
      <point x="657" y="1040" type="line"/>
      <point x="987" y="1040"/>
    </contour>
    <contour>
      <point x="778" y="745" type="qcurve"/>
      <point x="778" y="848"/>
      <point x="688" y="936"/>
      <point x="586" y="936" type="qcurve"/>
      <point x="489" y="936" type="line"/>
      <point x="489" y="592" type="line"/>
      <point x="582" y="592" type="line"/>
      <point x="778" y="592"/>
    </contour>
  </outline>
</glyph>
<glyph name="S" format="2">
  <advance width="1040"/>
  <unicode hex="0053"/>
  <outline>
    <contour>
      <point x="963" y="418" type="qcurve"/>
      <point x="963" y="283"/>
      <point x="850" y="217" type="qcurve"/>
      <point x="760" y="166"/>
      <point x="612" y="166" type="qcurve"/>
      <point x="485" y="166"/>
      <point x="401" y="215" type="qcurve"/>
      <point x="297" y="274"/>
      <point x="297" y="393" type="qcurve"/>
      <point x="297" y="426"/>
      <point x="307" y="467" type="qcurve"/>
      <point x="479" y="473" type="line"/>
      <point x="475" y="440"/>
      <point x="475" y="412" type="qcurve"/>
      <point x="475" y="266"/>
      <point x="625" y="266" type="qcurve"/>
      <point x="768" y="266"/>
      <point x="768" y="393" type="qcurve"/>
      <point x="768" y="477"/>
      <point x="647" y="537" type="qcurve"/>
      <point x="571" y="571"/>
      <point x="422" y="639" type="qcurve"/>
      <point x="301" y="711"/>
      <point x="301" y="815" type="qcurve"/>
      <point x="301" y="938"/>
      <point x="410" y="999" type="qcurve"/>
      <point x="498" y="1051"/>
      <point x="629" y="1051" type="qcurve"/>
      <point x="733" y="1051"/>
      <point x="817" y="1006" type="qcurve"/>
      <point x="922" y="952"/>
      <point x="922" y="858" type="qcurve"/>
      <point x="922" y="823"/>
      <point x="913" y="784" type="qcurve"/>
      <point x="739" y="782" type="line"/>
      <point x="741" y="801"/>
      <point x="741" y="817" type="qcurve"/>
      <point x="741" y="950"/>
      <point x="612" y="950" type="qcurve"/>
      <point x="563" y="950"/>
      <point x="489" y="895"/>
      <point x="489" y="846" type="qcurve"/>
      <point x="489" y="776"/>
      <point x="633" y="700" type="qcurve"/>
      <point x="735" y="653"/>
      <point x="840" y="606" type="qcurve"/>
      <point x="963" y="530"/>
    </contour>
  </outline>
</glyph>
<glyph name="W" format="2">
  <advance width="1479"/>
  <unicode hex="0057"/>
  <outline>
    <contour>
      <point x="1415" y="1040" type="line"/>
      <point x="1227" y="184" type="line"/>
      <point x="1006" y="184" type="line"/>
      <point x="889" y="725" type="line"/>
      <point x="770" y="184" type="line"/>
      <point x="547" y="184" type="line"/>
      <point x="344" y="1040" type="line"/>
      <point x="535" y="1040" type="line"/>
      <point x="672" y="375" type="line"/>
      <point x="813" y="940" type="line"/>
      <point x="977" y="940" type="line"/>
      <point x="1106" y="371" type="line"/>
      <point x="1245" y="1040" type="line"/>
    </contour>
  </outline>
</glyph>
<glyph name="X" format="2">
  <advance width="1055"/>
  <unicode hex="0058"/>
  <outline>
    <contour>
      <point x="981" y="184" type="line"/>
      <point x="772" y="184" type="line"/>
      <point x="604" y="528" type="line"/>
      <point x="430" y="184" type="line"/>
      <point x="244" y="184" type="line"/>
      <point x="508" y="653" type="line"/>
      <point x="285" y="1040" type="line"/>
      <point x="492" y="1040" type="line"/>
      <point x="623" y="756" type="line"/>
      <point x="756" y="1040" type="line"/>
      <point x="940" y="1040" type="line"/>
      <point x="715" y="653" type="line"/>
    </contour>
  </outline>
</glyph>
<glyph name="Y" format="2">
  <advance width="1087"/>
  <unicode hex="0059"/>
  <outline>
    <contour>
      <point x="1036" y="1040" type="line"/>
      <point x="745" y="520" type="line"/>
      <point x="745" y="184" type="line"/>
      <point x="553" y="184" type="line"/>
      <point x="553" y="524" type="line"/>
      <point x="266" y="1040" type="line"/>
      <point x="473" y="1040" type="line"/>
      <point x="659" y="664" type="line"/>
      <point x="852" y="1040" type="line"/>
    </contour>
  </outline>
</glyph>
<glyph name="backslash" format="2">
  <advance width="905"/>
  <unicode hex="005C"/>
  <outline>
    <contour>
      <point x="758" y="-23" type="line"/>
      <point x="608" y="-23" type="line"/>
      <point x="147" y="1239" type="line"/>
      <point x="297" y="1239" type="line"/>
    </contour>
  </outline>
</glyph>
<glyph name="bracketright" format="2">
  <advance width="1081"/>
  <unicode hex="005D"/>
  <outline>
    <contour>
      <point x="838" y="-291" type="line"/>
      <point x="197" y="-291" type="line"/>
      <point x="197" y="-158" type="line"/>
      <point x="573" y="-158" type="line"/>
      <point x="573" y="1343" type="line"/>
      <point x="197" y="1343" type="line"/>
      <point x="197" y="1475" type="line"/>
      <point x="838" y="1475" type="line"/>
    </contour>
  </outline>
</glyph>
<glyph name="asciicircum" format="2">
  <advance width="1073"/>
  <unicode hex="005E"/>
  <outline>
    <contour>
      <point x="965" y="825" type="line"/>
      <point x="772" y="825" type="line"/>
      <point x="537" y="1280" type="line"/>
      <point x="301" y="825" type="line"/>
      <point x="109" y="825" type="line"/>
      <point x="444" y="1473" type="line"/>
      <point x="629" y="1473" type="line"/>
    </contour>
  </outline>
</glyph>
<glyph name="b" format="2">
  <advance width="993"/>
  <unicode hex="0062"/>
  <outline>
    <contour>
      <point x="942" y="432" type="qcurve"/>
      <point x="942" y="246"/>
      <point x="676" y="246" type="qcurve"/>
      <point x="350" y="246" type="line"/>
      <point x="350" y="979" type="line"/>
      <point x="629" y="979" type="line"/>
      <point x="743" y="979"/>
      <point x="819" y="936" type="qcurve"/>
      <point x="911" y="883"/>
      <point x="911" y="776" type="qcurve"/>
      <point x="911" y="659"/>
      <point x="717" y="618" type="qcurve"/>
      <point x="942" y="575"/>
    </contour>
    <contour>
      <point x="741" y="764" type="qcurve"/>
      <point x="741" y="891"/>
      <point x="618" y="891" type="qcurve"/>
      <point x="516" y="891" type="line"/>
      <point x="516" y="659" type="line"/>
      <point x="639" y="659" type="line"/>
      <point x="741" y="659"/>
    </contour>
    <contour>
      <point x="764" y="449" type="qcurve"/>
      <point x="764" y="575"/>
      <point x="639" y="575" type="qcurve"/>
      <point x="516" y="575" type="line"/>
      <point x="516" y="336" type="line"/>
      <point x="647" y="336" type="line"/>
      <point x="764" y="336"/>
    </contour>
  </outline>
</glyph>
<glyph name="d" format="2">
  <advance width="1001"/>
  <unicode hex="0064"/>
  <outline>
    <contour>
      <point x="938" y="592" type="qcurve"/>
      <point x="938" y="420"/>
      <point x="874" y="338" type="qcurve"/>
      <point x="801" y="246"/>
      <point x="635" y="246" type="qcurve"/>
      <point x="346" y="246" type="line"/>
      <point x="346" y="979" type="line"/>
      <point x="623" y="979" type="line"/>
      <point x="938" y="979"/>
    </contour>
    <contour>
      <point x="760" y="561" type="qcurve"/>
      <point x="760" y="813"/>
      <point x="694" y="862" type="qcurve"/>
      <point x="659" y="891"/>
      <point x="606" y="891" type="qcurve"/>
      <point x="512" y="891" type="line"/>
      <point x="512" y="336" type="line"/>
      <point x="623" y="336" type="line"/>
      <point x="760" y="336"/>
    </contour>
  </outline>
</glyph>
<glyph name="e" format="2">
  <advance width="940"/>
  <unicode hex="0065"/>
  <outline>
    <contour>
      <point x="874" y="246" type="line"/>
      <point x="344" y="246" type="line"/>
      <point x="344" y="979" type="line"/>
      <point x="836" y="979" type="line"/>
      <point x="836" y="879" type="line"/>
      <point x="510" y="879" type="line"/>
      <point x="510" y="670" type="line"/>
      <point x="788" y="670" type="line"/>
      <point x="788" y="573" type="line"/>
      <point x="510" y="573" type="line"/>
      <point x="510" y="344" type="line"/>
      <point x="874" y="344" type="line"/>
    </contour>
  </outline>
</glyph>
<glyph name="g" format="2">
  <advance width="913"/>
  <unicode hex="0067"/>
  <outline>
    <contour>
      <point x="905" y="246" type="line"/>
      <point x="739" y="246" type="line"/>
      <point x="739" y="330" type="line"/>
      <point x="666" y="233"/>
      <point x="543" y="233" type="qcurve"/>
      <point x="481" y="233"/>
      <point x="422" y="266" type="qcurve"/>
      <point x="295" y="338"/>
      <point x="295" y="559" type="qcurve"/>
      <point x="295" y="762"/>
      <point x="348" y="858" type="qcurve"/>
      <point x="420" y="987"/>
      <point x="606" y="987" type="qcurve"/>
      <point x="711" y="987"/>
      <point x="786" y="948" type="qcurve"/>
      <point x="883" y="899"/>
      <point x="883" y="803" type="qcurve"/>
      <point x="883" y="762" type="line"/>
      <point x="715" y="760" type="line"/>
      <point x="719" y="795"/>
      <point x="719" y="801" type="qcurve"/>
      <point x="698" y="899"/>
      <point x="604" y="899" type="qcurve"/>
      <point x="516" y="899"/>
      <point x="487" y="788" type="qcurve"/>
      <point x="473" y="731"/>
      <point x="473" y="608" type="qcurve"/>
      <point x="473" y="328"/>
      <point x="614" y="328" type="qcurve"/>
      <point x="739" y="328"/>
      <point x="739" y="508" type="qcurve"/>
      <point x="614" y="508" type="line"/>
      <point x="614" y="602" type="line"/>
      <point x="905" y="602" type="line"/>
    </contour>
  </outline>
</glyph>
<glyph name="h" format="2">
  <advance width="979"/>
  <unicode hex="0068"/>
  <outline>
    <contour>
      <point x="907" y="246" type="line"/>
      <point x="741" y="246" type="line"/>
      <point x="741" y="598" type="line"/>
      <point x="504" y="598" type="line"/>
      <point x="504" y="246" type="line"/>
      <point x="338" y="246" type="line"/>
      <point x="338" y="979" type="line"/>
      <point x="504" y="979" type="line"/>
      <point x="504" y="692" type="line"/>
      <point x="741" y="692" type="line"/>
      <point x="741" y="979" type="line"/>
      <point x="907" y="979" type="line"/>
    </contour>
  </outline>
</glyph>
<glyph name="i" format="2">
  <advance width="514"/>
  <unicode hex="0069"/>
  <outline>
    <contour>
      <point x="416" y="246" type="line"/>
      <point x="260" y="246" type="line"/>
      <point x="260" y="979" type="line"/>
      <point x="416" y="979" type="line"/>
    </contour>
  </outline>
</glyph>
<glyph name="j" format="2">
  <advance width="848"/>
  <unicode hex="006A"/>
  <outline>
    <contour>
      <point x="778" y="399" type="line"/>
      <point x="778" y="225"/>
      <point x="532" y="225" type="qcurve"/>
      <point x="430" y="225"/>
      <point x="362" y="264" type="qcurve"/>
      <point x="283" y="313"/>
      <point x="283" y="410" type="qcurve"/>
      <point x="283" y="459"/>
      <point x="307" y="535" type="qcurve"/>
      <point x="453" y="537" type="line"/>
      <point x="442" y="483"/>
      <point x="442" y="438" type="qcurve"/>
      <point x="442" y="326"/>
      <point x="532" y="326" type="qcurve"/>
      <point x="612" y="326"/>
      <point x="612" y="410" type="qcurve"/>
      <point x="612" y="971" type="line"/>
      <point x="778" y="971" type="line"/>
    </contour>
  </outline>
</glyph>
<glyph name="k" format="2">
  <advance width="961"/>
  <unicode hex="006B"/>
  <outline>
    <contour>
      <point x="924" y="246" type="line"/>
      <point x="733" y="246" type="line"/>
      <point x="449" y="627" type="line"/>
      <point x="449" y="614" type="line"/>
      <point x="721" y="979" type="line"/>
      <point x="915" y="979" type="line"/>
      <point x="618" y="629" type="line"/>
    </contour>
    <contour>
      <point x="485" y="246" type="line"/>
      <point x="326" y="246" type="line"/>
      <point x="326" y="979" type="line"/>
      <point x="485" y="979" type="line"/>
    </contour>
  </outline>
</glyph>
<glyph name="l" format="2">
  <advance width="848"/>
  <unicode hex="006C"/>
  <outline>
    <contour>
      <point x="782" y="246" type="line"/>
      <point x="307" y="246" type="line"/>
      <point x="307" y="979" type="line"/>
      <point x="475" y="979" type="line"/>
      <point x="475" y="344" type="line"/>
      <point x="782" y="344" type="line"/>
    </contour>
  </outline>
</glyph>
<glyph name="m" format="2">
  <advance width="1317"/>
  <unicode hex="006D"/>
  <outline>
    <contour>
      <point x="1239" y="246" type="line"/>
      <point x="1079" y="246" type="line"/>
      <point x="1079" y="821" type="line"/>
      <point x="883" y="461" type="line"/>
      <point x="770" y="461" type="line"/>
      <point x="580" y="821" type="line"/>
      <point x="580" y="246" type="line"/>
      <point x="420" y="246" type="line"/>
      <point x="420" y="979" type="line"/>
      <point x="629" y="979" type="line"/>
      <point x="827" y="614" type="line"/>
      <point x="1030" y="979" type="line"/>
      <point x="1239" y="979" type="line"/>
    </contour>
  </outline>
</glyph>
<glyph name="n" format="2">
  <advance width="987"/>
  <unicode hex="006E"/>
  <outline>
    <contour>
      <point x="907" y="246" type="line"/>
      <point x="768" y="246" type="line"/>
      <point x="494" y="752" type="line"/>
      <point x="494" y="246" type="line"/>
      <point x="340" y="246" type="line"/>
      <point x="340" y="979" type="line"/>
      <point x="500" y="979" type="line"/>
      <point x="754" y="504" type="line"/>
      <point x="754" y="979" type="line"/>
      <point x="907" y="979" type="line"/>
    </contour>
  </outline>
</glyph>
<glyph name="o" format="2">
  <advance width="1038"/>
  <unicode hex="006F"/>
  <outline>
    <contour>
      <point x="956" y="582" type="qcurve"/>
      <point x="956" y="399"/>
      <point x="895" y="322" type="qcurve"/>
      <point x="825" y="229"/>
      <point x="649" y="229" type="qcurve"/>
      <point x="473" y="229"/>
      <point x="403" y="322" type="qcurve"/>
      <point x="342" y="399"/>
      <point x="342" y="582" type="qcurve"/>
      <point x="342" y="774"/>
      <point x="397" y="866" type="qcurve"/>
      <point x="469" y="987"/>
      <point x="649" y="987" type="qcurve"/>
      <point x="829" y="987"/>
      <point x="901" y="866" type="qcurve"/>
      <point x="956" y="774"/>
    </contour>
    <contour>
      <point x="786" y="647" type="qcurve"/>
      <point x="786" y="899"/>
      <point x="649" y="899" type="qcurve"/>
      <point x="512" y="899"/>
      <point x="512" y="647" type="qcurve"/>
      <point x="512" y="489"/>
      <point x="522" y="444" type="qcurve"/>
      <point x="549" y="317"/>
      <point x="649" y="317" type="qcurve"/>
      <point x="752" y="317"/>
      <point x="776" y="444" type="qcurve"/>
      <point x="786" y="489"/>
    </contour>
  </outline>
</glyph>
<glyph name="q" format="2">
  <advance width="932"/>
  <unicode hex="0071"/>
  <outline>
    <contour>
      <point x="926" y="516" type="qcurve"/>
      <point x="926" y="371"/>
      <point x="887" y="295" type="qcurve"/>
      <point x="835" y="195"/>
      <point x="706" y="170" type="qcurve"/>
      <point x="776" y="111"/>
      <point x="915" y="98" type="qcurve"/>
      <point x="852" y="0" type="line"/>
      <point x="651" y="18"/>
      <point x="561" y="166" type="qcurve"/>
      <point x="416" y="178"/>
      <point x="356" y="279" type="qcurve"/>
      <point x="311" y="358"/>
      <point x="311" y="516" type="qcurve"/>
      <point x="311" y="707"/>
      <point x="369" y="799" type="qcurve"/>
      <point x="440" y="920"/>
      <point x="618" y="920" type="qcurve"/>
      <point x="797" y="920"/>
      <point x="868" y="799" type="qcurve"/>
      <point x="926" y="707"/>
    </contour>
    <contour>
      <point x="749" y="582" type="qcurve"/>
      <point x="749" y="829"/>
      <point x="618" y="829" type="qcurve"/>
      <point x="487" y="829"/>
      <point x="487" y="582" type="qcurve"/>
      <point x="487" y="539"/>
      <point x="487" y="539" type="qcurve"/>
      <point x="485" y="477"/>
      <point x="485" y="489" type="qcurve"/>
      <point x="485" y="252"/>
      <point x="618" y="252" type="qcurve"/>
      <point x="686" y="252"/>
      <point x="719" y="301" type="qcurve"/>
      <point x="749" y="344"/>
    </contour>
  </outline>
</glyph>
<glyph name="r" format="2">
  <advance width="999"/>
  <unicode hex="0072"/>
  <outline>
    <contour>
      <point x="932" y="246" type="qcurve"/>
      <point x="762" y="246" type="line"/>
      <point x="748" y="375" type="line"/>
      <point x="733" y="498"/>
      <point x="666" y="528" type="qcurve"/>
      <point x="635" y="543"/>
      <point x="512" y="543" type="qcurve"/>
      <point x="512" y="246" type="line"/>
      <point x="346" y="246" type="line"/>
      <point x="346" y="979" type="line"/>
      <point x="678" y="979" type="line"/>
      <point x="788" y="979"/>
      <point x="854" y="930" type="qcurve"/>
      <point x="930" y="874"/>
      <point x="930" y="768" type="qcurve"/>
      <point x="930" y="623"/>
      <point x="696" y="575" type="qcurve"/>
      <point x="819" y="557"/>
      <point x="862" y="516" type="qcurve"/>
      <point x="893" y="485"/>
      <point x="901" y="408" type="qcurve"/>
      <point x="915" y="297"/>
    </contour>
    <contour>
      <point x="756" y="745" type="qcurve"/>
      <point x="756" y="891"/>
      <point x="625" y="891" type="qcurve"/>
      <point x="512" y="891" type="line"/>
      <point x="512" y="631" type="line"/>
      <point x="627" y="631" type="line"/>
      <point x="756" y="631"/>
    </contour>
  </outline>
</glyph>
<glyph name="s" format="2">
  <advance width="981"/>
  <unicode hex="0073"/>
  <outline>
    <contour>
      <point x="915" y="444" type="qcurve"/>
      <point x="915" y="229"/>
      <point x="616" y="229" type="qcurve"/>
      <point x="506" y="229"/>
      <point x="434" y="270" type="qcurve"/>
      <point x="344" y="324"/>
      <point x="344" y="424" type="qcurve"/>
      <point x="344" y="453"/>
      <point x="352" y="487" type="qcurve"/>
      <point x="502" y="492" type="line"/>
      <point x="496" y="465"/>
      <point x="496" y="440" type="qcurve"/>
      <point x="496" y="315"/>
      <point x="625" y="315" type="qcurve"/>
      <point x="748" y="315"/>
      <point x="748" y="424" type="qcurve"/>
      <point x="748" y="496"/>
      <point x="643" y="547" type="qcurve"/>
      <point x="580" y="575"/>
      <point x="453" y="635" type="qcurve"/>
      <point x="348" y="696"/>
      <point x="348" y="786" type="qcurve"/>
      <point x="348" y="891"/>
      <point x="440" y="944" type="qcurve"/>
      <point x="516" y="987"/>
      <point x="629" y="987" type="qcurve"/>
      <point x="717" y="987"/>
      <point x="791" y="948" type="qcurve"/>
      <point x="881" y="903"/>
      <point x="881" y="821" type="qcurve"/>
      <point x="881" y="793"/>
      <point x="872" y="760" type="qcurve"/>
      <point x="723" y="758" type="line"/>
      <point x="727" y="774"/>
      <point x="727" y="788" type="qcurve"/>
      <point x="727" y="901"/>
      <point x="616" y="901" type="qcurve"/>
      <point x="508" y="901"/>
      <point x="508" y="813" type="qcurve"/>
      <point x="508" y="754"/>
      <point x="631" y="688" type="qcurve"/>
      <point x="721" y="647"/>
      <point x="809" y="606" type="qcurve"/>
      <point x="915" y="543"/>
    </contour>
  </outline>
</glyph>
<glyph name="t" format="2">
  <advance width="969"/>
  <unicode hex="0074"/>
  <outline>
    <contour>
      <point x="903" y="879" type="line"/>
      <point x="696" y="879" type="line"/>
      <point x="696" y="246" type="line"/>
      <point x="530" y="246" type="line"/>
      <point x="530" y="879" type="line"/>
      <point x="324" y="879" type="line"/>
      <point x="324" y="979" type="line"/>
      <point x="903" y="979" type="line"/>
    </contour>
  </outline>
</glyph>
<glyph name="u" format="2">
  <advance width="977"/>
  <unicode hex="0075"/>
  <outline>
    <contour>
      <point x="907" y="424" type="line"/>
      <point x="907" y="225"/>
      <point x="623" y="225" type="qcurve"/>
      <point x="338" y="225"/>
      <point x="338" y="424" type="qcurve"/>
      <point x="338" y="971" type="line"/>
      <point x="504" y="971" type="line"/>
      <point x="504" y="428" type="line"/>
      <point x="504" y="313"/>
      <point x="623" y="313" type="qcurve"/>
      <point x="741" y="313"/>
      <point x="741" y="428" type="qcurve"/>
      <point x="741" y="971" type="line"/>
      <point x="907" y="971" type="line"/>
    </contour>
  </outline>
</glyph>
<glyph name="bar" format="2">
  <advance width="979"/>
  <unicode hex="007C"/>
  <outline>
    <contour>
      <point x="590" y="-305" type="line"/>
      <point x="389" y="-305" type="line"/>
      <point x="389" y="1225" type="line"/>
      <point x="590" y="1225" type="line"/>
    </contour>
  </outline>
</glyph>
<glyph name="asciitilde" format="2">
  <advance width="1372"/>
  <unicode hex="007E"/>
  <outline>
    <contour>
      <point x="1262" y="629" type="line"/>
      <point x="1102" y="506"/>
      <point x="950" y="506" type="qcurve"/>
      <point x="858" y="506"/>
      <point x="526" y="649"/>
      <point x="436" y="649" type="qcurve"/>
      <point x="295" y="649"/>
      <point x="139" y="530" type="qcurve"/>
      <point x="139" y="684" type="line"/>
      <point x="299" y="807"/>
      <point x="449" y="807" type="qcurve"/>
      <point x="541" y="807"/>
      <point x="874" y="664"/>
      <point x="965" y="664" type="qcurve"/>
      <point x="1106" y="664"/>
      <point x="1262" y="782" type="qcurve"/>
    </contour>
  </outline>
</glyph>
<glyph name="section" format="2">
  <advance width="1151"/>
  <unicode hex="00A7"/>
  <outline>
    <contour>
      <point x="926" y="555" type="qcurve"/>
      <point x="926" y="422"/>
      <point x="770" y="319" type="qcurve"/>
      <point x="852" y="233"/>
      <point x="852" y="150" type="qcurve"/>
      <point x="852" y="51"/>
      <point x="686" y="-84"/>
      <point x="586" y="-84" type="qcurve"/>
      <point x="297" y="-84"/>
      <point x="295" y="186" type="qcurve"/>
      <point x="418" y="186" type="line"/>
      <point x="418" y="20"/>
      <point x="565" y="20" type="qcurve"/>
      <point x="627" y="20"/>
      <point x="727" y="88"/>
      <point x="727" y="145" type="qcurve"/>
      <point x="727" y="225"/>
      <point x="600" y="305" type="qcurve"/>
      <point x="520" y="352"/>
      <point x="362" y="449" type="qcurve"/>
      <point x="236" y="543"/>
      <point x="236" y="655" type="qcurve"/>
      <point x="236" y="795"/>
      <point x="387" y="887" type="qcurve"/>
      <point x="315" y="965"/>
      <point x="315" y="1036" type="qcurve"/>
      <point x="315" y="1143"/>
      <point x="469" y="1284"/>
      <point x="578" y="1284" type="qcurve"/>
      <point x="696" y="1284"/>
      <point x="846" y="1139"/>
      <point x="850" y="1020" type="qcurve"/>
      <point x="731" y="1020" type="line"/>
      <point x="729" y="1178"/>
      <point x="578" y="1178" type="qcurve"/>
      <point x="520" y="1178"/>
      <point x="438" y="1110"/>
      <point x="438" y="1055" type="qcurve"/>
      <point x="438" y="983"/>
      <point x="586" y="887" type="qcurve"/>
      <point x="694" y="825"/>
      <point x="801" y="764" type="qcurve"/>
      <point x="926" y="672"/>
    </contour>
    <contour>
      <point x="813" y="528" type="qcurve"/>
      <point x="813" y="618"/>
      <point x="715" y="678" type="qcurve"/>
      <point x="453" y="836" type="line"/>
      <point x="350" y="778"/>
      <point x="350" y="684" type="qcurve"/>
      <point x="350" y="600"/>
      <point x="420" y="555" type="qcurve"/>
      <point x="702" y="375" type="line"/>
      <point x="813" y="434"/>
    </contour>
  </outline>
</glyph>
<glyph name="copyright" format="2">
  <advance width="1290"/>
  <unicode hex="00A9"/>
  <outline>
    <contour>
      <point x="1114" y="809" type="qcurve"/>
      <point x="1114" y="608"/>
      <point x="836" y="332"/>
      <point x="635" y="332" type="qcurve"/>
      <point x="434" y="332"/>
      <point x="156" y="608"/>
      <point x="156" y="809" type="qcurve"/>
      <point x="156" y="1010"/>
      <point x="434" y="1288"/>
      <point x="635" y="1288" type="qcurve"/>
      <point x="836" y="1288"/>
      <point x="1114" y="1010"/>
    </contour>
    <contour>
      <point x="1077" y="809" type="qcurve"/>
      <point x="1077" y="995"/>
      <point x="821" y="1249"/>
      <point x="635" y="1249" type="qcurve"/>
      <point x="451" y="1249"/>
      <point x="195" y="993"/>
      <point x="195" y="809" type="qcurve"/>
      <point x="195" y="625"/>
      <point x="451" y="369"/>
      <point x="635" y="369" type="qcurve"/>
      <point x="819" y="369"/>
      <point x="1077" y="625"/>
    </contour>
    <contour>
      <point x="881" y="627" type="qcurve"/>
      <point x="793" y="510"/>
      <point x="639" y="510" type="qcurve"/>
      <point x="508" y="510"/>
      <point x="332" y="676"/>
      <point x="332" y="805" type="qcurve"/>
      <point x="332" y="942"/>
      <point x="524" y="1120"/>
      <point x="664" y="1120" type="qcurve"/>
      <point x="705" y="1120"/>
      <point x="756" y="1090" type="qcurve"/>
      <point x="805" y="1057" type="line"/>
      <point x="815" y="1057"/>
      <point x="821" y="1087" type="qcurve"/>
      <point x="850" y="1087" type="line"/>
      <point x="850" y="901" type="line"/>
      <point x="834" y="877" type="line"/>
      <point x="788" y="1018"/>
      <point x="725" y="1053" type="qcurve"/>
      <point x="694" y="1071"/>
      <point x="655" y="1071" type="qcurve"/>
      <point x="418" y="1071"/>
      <point x="418" y="819" type="qcurve"/>
      <point x="418" y="557"/>
      <point x="664" y="557" type="qcurve"/>
      <point x="705" y="557"/>
      <point x="819" y="621"/>
      <point x="848" y="653" type="qcurve"/>
      <point x="877" y="651"/>
    </contour>
  </outline>
</glyph>
<glyph name="paragraph" format="2">
  <advance width="1036"/>
  <unicode hex="00B6"/>
  <outline>
    <contour>
      <point x="795" y="-35" type="line"/>
      <point x="705" y="-35" type="line"/>
      <point x="705" y="1186" type="line"/>
      <point x="537" y="1186" type="line"/>
      <point x="537" y="-35" type="line"/>
      <point x="449" y="-35" type="line"/>
      <point x="449" y="766" type="line"/>
      <point x="334" y="768"/>
      <point x="252" y="829" type="qcurve"/>
      <point x="160" y="897"/>
      <point x="160" y="1008" type="qcurve"/>
      <point x="160" y="1135"/>
      <point x="252" y="1200" type="qcurve"/>
      <point x="332" y="1257"/>
      <point x="465" y="1257" type="qcurve"/>
      <point x="795" y="1257" type="line"/>
    </contour>
  </outline>
</glyph>
<glyph name="middot" format="2">
  <advance width="840"/>
  <unicode hex="00B7"/>
  <outline>
    <contour>
      <point x="510" y="895" type="qcurve"/>
      <point x="510" y="862"/>
      <point x="465" y="811"/>
      <point x="432" y="811" type="qcurve"/>
      <point x="401" y="811"/>
      <point x="356" y="864"/>
      <point x="356" y="895" type="qcurve"/>
      <point x="356" y="928"/>
      <point x="401" y="979"/>
      <point x="432" y="979" type="qcurve"/>
      <point x="465" y="979"/>
      <point x="510" y="928"/>
    </contour>
  </outline>
</glyph>
<glyph name="afii57929" format="2">
  <advance width="580"/>
  <unicode hex="02BC"/>
  <outline>
    <contour>
      <point x="463" y="1081" type="line"/>
      <point x="463" y="829"/>
      <point x="182" y="774" type="qcurve"/>
      <point x="182" y="852" type="line"/>
      <point x="354" y="895"/>
      <point x="352" y="1090" type="qcurve"/>
      <point x="162" y="1090" type="line"/>
      <point x="162" y="1378" type="line"/>
      <point x="463" y="1378" type="line"/>
    </contour>
  </outline>
</glyph>
<glyph name="macronlowmod" format="2">
  <advance width="975"/>
  <unicode hex="02CD"/>
  <outline>
    <contour>
      <point x="856" y="0" type="line"/>
      <point x="152" y="0" type="line"/>
      <point x="152" y="186" type="line"/>
      <point x="856" y="186" type="line"/>
    </contour>
  </outline>
</glyph>
<glyph name="hyphentwo" format="2">
  <advance width="885"/>
  <unicode hex="2010"/>
  <outline>
    <contour>
      <point x="809" y="539" type="line"/>
      <point x="164" y="539" type="line"/>
      <point x="164" y="725" type="line"/>
      <point x="809" y="725" type="line"/>
    </contour>
  </outline>
</glyph>
<glyph name="emdash" format="2">
  <advance width="1843"/>
  <unicode hex="2014"/>
  <outline>
    <contour>
      <point x="1858" y="375" type="line"/>
      <point x="-14" y="375" type="line"/>
      <point x="-14" y="561" type="line"/>
      <point x="1858" y="561" type="line"/>
    </contour>
  </outline>
</glyph>
<glyph name="quoteleft" format="2">
  <advance width="582"/>
  <unicode hex="2018"/>
  <outline>
    <contour>
      <point x="434" y="872" type="line"/>
      <point x="133" y="872" type="line"/>
      <point x="133" y="1171" type="line"/>
      <point x="133" y="1415"/>
      <point x="414" y="1468" type="qcurve"/>
      <point x="414" y="1395" type="line"/>
      <point x="242" y="1352"/>
      <point x="244" y="1161" type="qcurve"/>
      <point x="434" y="1161" type="line"/>
    </contour>
  </outline>
</glyph>
<glyph name="quoteright" format="2">
  <advance width="602"/>
  <unicode hex="2019"/>
  <outline>
    <contour>
      <point x="480" y="1157" type="line"/>
      <point x="480" y="911"/>
      <point x="199" y="858" type="qcurve"/>
      <point x="199" y="934" type="line"/>
      <point x="371" y="975"/>
      <point x="369" y="1165" type="qcurve"/>
      <point x="178" y="1165" type="line"/>
      <point x="178" y="1454" type="line"/>
      <point x="480" y="1454" type="line"/>
    </contour>
  </outline>
</glyph>
<glyph name="ellipsis" format="2">
  <advance width="1597"/>
  <unicode hex="2026"/>
  <outline>
    <contour>
      <point x="1522" y="0" type="line"/>
      <point x="1221" y="0" type="line"/>
      <point x="1221" y="287" type="line"/>
      <point x="1522" y="287" type="line"/>
    </contour>
    <contour>
      <point x="999" y="0" type="line"/>
      <point x="700" y="0" type="line"/>
      <point x="700" y="287" type="line"/>
      <point x="999" y="287" type="line"/>
    </contour>
    <contour>
      <point x="471" y="0" type="line"/>
      <point x="172" y="0" type="line"/>
      <point x="172" y="287" type="line"/>
      <point x="471" y="287" type="line"/>
    </contour>
  </outline>
</glyph>
<glyph name="H18543" format="2">
  <advance width="1346"/>
  <unicode hex="25AA"/>
  <outline>
    <contour>
      <point x="1020" y="356" type="line"/>
      <point x="350" y="356" type="line"/>
      <point x="350" y="899" type="line"/>
      <point x="1020" y="899" type="line"/>
    </contour>
  </outline>
</glyph>
<glyph name="blackstar" format="2">
  <advance width="1845"/>
  <unicode hex="2605"/>
  <outline>
    <contour>
      <point x="1456" y="872" type="line"/>
      <point x="1122" y="618" type="line"/>
      <point x="1251" y="211" type="line"/>
      <point x="918" y="463" type="line"/>
      <point x="582" y="211" type="line"/>
      <point x="709" y="618" type="line"/>
      <point x="375" y="872" type="line"/>
      <point x="788" y="872" type="line"/>
      <point x="918" y="1282" type="line"/>
      <point x="1044" y="872" type="line"/>
    </contour>
  </outline>
</glyph>
<glyph name="dblanglebracketright" format="2">
  <advance width="1100"/>
  <unicode hex="300B"/>
  <outline>
    <contour>
      <point x="201" y="-23" type="line"/>
      <point x="547" y="666" type="line"/>
      <point x="201" y="1356" type="line"/>
      <point x="164" y="1339"/>
      <point x="128" y="1322"/>
      <point x="90" y="1306" type="curve"/>
      <point x="192" y="1104"/>
      <point x="308" y="869"/>
      <point x="410" y="666" type="curve"/>
      <point x="304" y="453"/>
      <point x="197" y="241"/>
      <point x="90" y="28" type="curve"/>
    </contour>
    <contour>
      <point x="482" y="-23" type="line"/>
      <point x="596" y="206"/>
      <point x="713" y="436"/>
      <point x="827" y="666" type="curve"/>
      <point x="713" y="896"/>
      <point x="596" y="1126"/>
      <point x="482" y="1356" type="curve"/>
      <point x="444" y="1339"/>
      <point x="408" y="1322"/>
      <point x="371" y="1306" type="curve"/>
      <point x="473" y="1104"/>
      <point x="588" y="869"/>
      <point x="690" y="666" type="curve"/>
      <point x="371" y="28" type="line"/>
    </contour>
  </outline>
</glyph>
<glyph name="uniA4D0" format="2">
  <advance width="1225"/>
  <unicode hex="A4D0"/>
  <outline>
    <contour>
      <point x="1139" y="313" type="qcurve"/>
      <point x="1139" y="2"/>
      <point x="696" y="2" type="qcurve"/>
      <point x="154" y="2" type="line"/>
      <point x="154" y="1223" type="line"/>
      <point x="618" y="1223" type="line"/>
      <point x="809" y="1223"/>
      <point x="934" y="1151" type="qcurve"/>
      <point x="1087" y="1063"/>
      <point x="1087" y="887" type="qcurve"/>
      <point x="1087" y="690"/>
      <point x="764" y="623" type="qcurve"/>
      <point x="1139" y="551"/>
    </contour>
    <contour>
      <point x="805" y="864" type="qcurve"/>
      <point x="805" y="1075"/>
      <point x="600" y="1075" type="qcurve"/>
      <point x="430" y="1075" type="line"/>
      <point x="430" y="690" type="line"/>
      <point x="633" y="690" type="line"/>
      <point x="805" y="690"/>
    </contour>
    <contour>
      <point x="842" y="340" type="qcurve"/>
      <point x="842" y="551"/>
      <point x="635" y="551" type="qcurve"/>
      <point x="430" y="551" type="line"/>
      <point x="430" y="152" type="line"/>
      <point x="647" y="152" type="line"/>
      <point x="842" y="152"/>
    </contour>
  </outline>
</glyph>
<glyph name="uniA4D1" format="2">
  <advance width="1243"/>
  <unicode hex="A4D1"/>
  <outline>
    <contour>
      <point x="1135" y="797" type="qcurve"/>
      <point x="1135" y="434"/>
      <point x="651" y="434" type="qcurve"/>
      <point x="526" y="434"/>
      <point x="424" y="444" type="qcurve"/>
      <point x="424" y="2" type="line"/>
      <point x="147" y="2" type="line"/>
      <point x="147" y="1223" type="line"/>
      <point x="666" y="1223" type="line"/>
      <point x="1135" y="1223"/>
    </contour>
    <contour>
      <point x="838" y="803" type="qcurve"/>
      <point x="838" y="948"/>
      <point x="709" y="1075"/>
      <point x="563" y="1075" type="qcurve"/>
      <point x="424" y="1075" type="line"/>
      <point x="424" y="584" type="line"/>
      <point x="557" y="584" type="line"/>
      <point x="838" y="584"/>
    </contour>
  </outline>
</glyph>
<glyph name="uniA4D5" format="2">
  <advance width="1223"/>
  <unicode hex="A4D5"/>
  <outline>
    <contour>
      <point x="1102" y="2" type="line"/>
      <point x="137" y="2" type="line"/>
      <point x="137" y="168" type="line"/>
      <point x="481" y="168" type="line"/>
      <point x="481" y="1223" type="line"/>
      <point x="758" y="1223" type="line"/>
      <point x="758" y="168" type="line"/>
      <point x="1102" y="168" type="line"/>
    </contour>
  </outline>
</glyph>
<glyph name="uniA4D7" format="2">
  <advance width="1184"/>
  <unicode hex="A4D7"/>
  <outline>
    <contour>
      <point x="1124" y="2" type="line"/>
      <point x="805" y="2" type="line"/>
      <point x="330" y="637" type="line"/>
      <point x="330" y="616" type="line"/>
      <point x="786" y="1223" type="line"/>
      <point x="1108" y="1223" type="line"/>
      <point x="614" y="639" type="line"/>
    </contour>
    <contour>
      <point x="391" y="2" type="line"/>
      <point x="125" y="2" type="line"/>
      <point x="125" y="1223" type="line"/>
      <point x="391" y="1223" type="line"/>
    </contour>
  </outline>
</glyph>
<glyph name="uniA4D9" format="2">
  <advance width="1059"/>
  <unicode hex="A4D9"/>
  <outline>
    <contour>
      <point x="944" y="268" type="line"/>
      <point x="944" y="-25"/>
      <point x="535" y="-25" type="qcurve"/>
      <point x="362" y="-25"/>
      <point x="252" y="43" type="qcurve"/>
      <point x="117" y="125"/>
      <point x="117" y="285" type="qcurve"/>
      <point x="117" y="365"/>
      <point x="160" y="494" type="qcurve"/>
      <point x="399" y="496" type="line"/>
      <point x="383" y="408"/>
      <point x="383" y="332" type="qcurve"/>
      <point x="383" y="143"/>
      <point x="532" y="143" type="qcurve"/>
      <point x="666" y="143"/>
      <point x="666" y="283" type="qcurve"/>
      <point x="666" y="1221" type="line"/>
      <point x="944" y="1221" type="line"/>
    </contour>
  </outline>
</glyph>
<glyph name="uniA4DA" format="2">
  <advance width="1278"/>
  <unicode hex="A4DA"/>
  <outline>
    <contour>
      <point x="1165" y="287" type="qcurve"/>
      <point x="1163" y="123"/>
      <point x="985" y="41" type="qcurve"/>
      <point x="850" y="-23"/>
      <point x="666" y="-23" type="qcurve"/>
      <point x="381" y="-23"/>
      <point x="258" y="109" type="qcurve"/>
      <point x="139" y="233"/>
      <point x="139" y="522" type="qcurve"/>
      <point x="139" y="885"/>
      <point x="227" y="1034" type="qcurve"/>
      <point x="348" y="1239"/>
      <point x="682" y="1239" type="qcurve"/>
      <point x="827" y="1239"/>
      <point x="944" y="1196" type="qcurve"/>
      <point x="1102" y="1139"/>
      <point x="1124" y="1022" type="qcurve"/>
      <point x="1130" y="991"/>
      <point x="1108" y="883" type="qcurve"/>
      <point x="842" y="881" type="line"/>
      <point x="852" y="969"/>
      <point x="850" y="987" type="qcurve"/>
      <point x="840" y="1059"/>
      <point x="782" y="1079" type="qcurve"/>
      <point x="750" y="1092"/>
      <point x="659" y="1092" type="qcurve"/>
      <point x="436" y="1092"/>
      <point x="436" y="717" type="qcurve"/>
      <point x="436" y="463" type="line"/>
      <point x="436" y="309"/>
      <point x="471" y="233" type="qcurve"/>
      <point x="520" y="125"/>
      <point x="657" y="125" type="qcurve"/>
      <point x="754" y="125"/>
      <point x="817" y="162" type="qcurve"/>
      <point x="895" y="207"/>
      <point x="889" y="297" type="qcurve"/>
      <point x="897" y="336"/>
      <point x="903" y="414" type="qcurve"/>
      <point x="1163" y="414" type="line"/>
      <point x="1167" y="397"/>
    </contour>
  </outline>
</glyph>
<glyph name="uniA4DF" format="2">
  <advance width="1640"/>
  <unicode hex="A4DF"/>
  <outline>
    <contour>
      <point x="1511" y="2" type="line"/>
      <point x="1245" y="2" type="line"/>
      <point x="1245" y="961" type="line"/>
      <point x="918" y="358" type="line"/>
      <point x="729" y="358" type="line"/>
      <point x="414" y="961" type="line"/>
      <point x="414" y="2" type="line"/>
      <point x="147" y="2" type="line"/>
      <point x="147" y="1223" type="line"/>
      <point x="494" y="1223" type="line"/>
      <point x="827" y="614" type="line"/>
      <point x="1165" y="1223" type="line"/>
      <point x="1511" y="1223" type="line"/>
    </contour>
  </outline>
</glyph>
<glyph name="uniA4E5" format="2">
  <advance width="1180"/>
  <unicode hex="A4E5"/>
  <outline>
    <contour>
      <point x="1151" y="2" type="line"/>
      <point x="861" y="2" type="line"/>
      <point x="613" y="1024" type="line"/>
      <point x="373" y="2" type="line"/>
      <point x="82" y="2" type="line"/>
      <point x="437" y="1223" type="line"/>
      <point x="797" y="1223" type="line"/>
    </contour>
  </outline>
</glyph>
<glyph name="uniA4E8" format="2">
  <advance width="1294"/>
  <unicode hex="A4E8"/>
  <outline>
    <contour>
      <point x="1167" y="694" type="qcurve"/>
      <point x="1167" y="358"/>
      <point x="1077" y="197" type="qcurve"/>
      <point x="958" y="-18"/>
      <point x="649" y="-18" type="qcurve"/>
      <point x="467" y="-18"/>
      <point x="346" y="45" type="qcurve"/>
      <point x="193" y="127"/>
      <point x="188" y="291" type="qcurve"/>
      <point x="188" y="303"/>
      <point x="190" y="356" type="qcurve"/>
      <point x="469" y="362" type="line"/>
      <point x="463" y="326"/>
      <point x="463" y="293" type="qcurve"/>
      <point x="463" y="131"/>
      <point x="653" y="131" type="qcurve"/>
      <point x="801" y="131"/>
      <point x="848" y="315" type="qcurve"/>
      <point x="872" y="412"/>
      <point x="872" y="621" type="qcurve"/>
      <point x="872" y="811"/>
      <point x="840" y="913" type="qcurve"/>
      <point x="786" y="1081"/>
      <point x="635" y="1081" type="qcurve"/>
      <point x="426" y="1081"/>
      <point x="426" y="862" type="qcurve"/>
      <point x="426" y="883"/>
      <point x="428" y="803" type="qcurve"/>
      <point x="637" y="803" type="line"/>
      <point x="637" y="647" type="line"/>
      <point x="152" y="647" type="line"/>
      <point x="152" y="1219" type="line"/>
      <point x="428" y="1219" type="line"/>
      <point x="428" y="1079" type="line"/>
      <point x="549" y="1239"/>
      <point x="754" y="1239" type="qcurve"/>
      <point x="973" y="1239"/>
      <point x="1079" y="1067" type="qcurve"/>
      <point x="1167" y="926"/>
    </contour>
  </outline>
</glyph>
<glyph name="uniA4EB" format="2">
  <advance width="1243"/>
  <unicode hex="A4EB"/>
  <outline>
    <contour>
      <point x="1139" y="2" type="line"/>
      <point x="842" y="2" type="line"/>
      <point x="600" y="492" type="line"/>
      <point x="352" y="2" type="line"/>
      <point x="86" y="2" type="line"/>
      <point x="463" y="670" type="line"/>
      <point x="143" y="1223" type="line"/>
      <point x="438" y="1223" type="line"/>
      <point x="627" y="817" type="line"/>
      <point x="817" y="1223" type="line"/>
      <point x="1081" y="1223" type="line"/>
      <point x="760" y="670" type="line"/>
    </contour>
  </outline>
</glyph>
<glyph name="uniA4EC" format="2">
  <advance width="1274"/>
  <unicode hex="A4EC"/>
  <outline>
    <contour>
      <point x="1200" y="1223" type="line"/>
      <point x="786" y="481" type="line"/>
      <point x="786" y="2" type="line"/>
      <point x="510" y="2" type="line"/>
      <point x="510" y="485" type="line"/>
      <point x="102" y="1223" type="line"/>
      <point x="397" y="1223" type="line"/>
      <point x="664" y="686" type="line"/>
      <point x="938" y="1223" type="line"/>
    </contour>
  </outline>
</glyph>
<glyph name="uniA4EE" format="2">
  <advance width="1268"/>
  <unicode hex="A4EE"/>
  <outline>
    <contour>
      <point x="1200" y="2" type="line"/>
      <point x="909" y="2" type="line"/>
      <point x="856" y="236" type="line"/>
      <point x="424" y="236" type="line"/>
      <point x="369" y="2" type="line"/>
      <point x="80" y="2" type="line"/>
      <point x="446" y="1223" type="line"/>
      <point x="825" y="1223" type="line"/>
    </contour>
    <contour>
      <point x="831" y="406" type="line"/>
      <point x="635" y="1051" type="line"/>
      <point x="446" y="406" type="line"/>
    </contour>
  </outline>
</glyph>
<glyph name="uniA4F0" format="2">
  <advance width="1161"/>
  <unicode hex="A4F0"/>
  <outline>
    <contour>
      <point x="1051" y="2" type="line"/>
      <point x="168" y="2" type="line"/>
      <point x="168" y="1223" type="line"/>
      <point x="987" y="1223" type="line"/>
      <point x="987" y="1057" type="line"/>
      <point x="444" y="1057" type="line"/>
      <point x="444" y="707" type="line"/>
      <point x="909" y="707" type="line"/>
      <point x="909" y="549" type="line"/>
      <point x="444" y="549" type="line"/>
      <point x="444" y="166" type="line"/>
      <point x="1051" y="166" type="line"/>
    </contour>
  </outline>
</glyph>
<glyph name="uniA4F1" format="2">
  <advance width="1180"/>
  <unicode hex="A4F1"/>
  <outline>
    <contour>
      <point x="1026" y="2" type="line"/>
      <point x="143" y="2" type="line"/>
      <point x="143" y="166" type="line"/>
      <point x="750" y="166" type="line"/>
      <point x="750" y="549" type="line"/>
      <point x="287" y="549" type="line"/>
      <point x="287" y="707" type="line"/>
      <point x="750" y="707" type="line"/>
      <point x="750" y="1057" type="line"/>
      <point x="207" y="1057" type="line"/>
      <point x="207" y="1223" type="line"/>
      <point x="1026" y="1223" type="line"/>
    </contour>
  </outline>
</glyph>
<glyph name="uniA4F4" format="2">
  <advance width="1214"/>
  <unicode hex="A4F4"/>
  <outline>
    <contour>
      <point x="1096" y="307" type="line"/>
      <point x="1096" y="-25"/>
      <point x="623" y="-25" type="qcurve"/>
      <point x="150" y="-25"/>
      <point x="150" y="307" type="qcurve"/>
      <point x="150" y="1221" type="line"/>
      <point x="426" y="1221" type="line"/>
      <point x="426" y="315" type="line"/>
      <point x="426" y="125"/>
      <point x="623" y="125" type="qcurve"/>
      <point x="819" y="125"/>
      <point x="819" y="315" type="qcurve"/>
      <point x="819" y="1221" type="line"/>
      <point x="1096" y="1221" type="line"/>
    </contour>
  </outline>
</glyph>
<glyph name="uniA4F5" format="2">
  <advance width="1249"/>
  <unicode hex="A4F5"/>
  <outline>
    <contour>
      <point x="1106" y="-25" type="line"/>
      <point x="829" y="-25" type="line"/>
      <point x="829" y="883" type="line"/>
      <point x="829" y="1073"/>
      <point x="633" y="1073" type="qcurve"/>
      <point x="436" y="1073"/>
      <point x="436" y="883" type="qcurve"/>
      <point x="436" y="-25" type="line"/>
      <point x="160" y="-25" type="line"/>
      <point x="160" y="891" type="line"/>
      <point x="160" y="1221"/>
      <point x="633" y="1221" type="qcurve"/>
      <point x="1106" y="1221"/>
      <point x="1106" y="891" type="qcurve"/>
    </contour>
  </outline>
</glyph>
<glyph name="uniA4F6" format="2">
  <advance width="1047"/>
  <unicode hex="A4F6"/>
  <outline>
    <contour>
      <point x="895" y="2" type="line"/>
      <point x="616" y="2" type="line"/>
      <point x="616" y="1059" type="line"/>
      <point x="104" y="1059" type="line"/>
      <point x="104" y="1223" type="line"/>
      <point x="895" y="1223" type="line"/>
    </contour>
  </outline>
</glyph>
<glyph name="uniA4F8" format="2">
  <advance width="575"/>
  <unicode hex="A4F8"/>
  <outline>
    <contour>
      <point x="471" y="0" type="line"/>
      <point x="170" y="0" type="line"/>
      <point x="170" y="297" type="line"/>
      <point x="471" y="297" type="line"/>
    </contour>
  </outline>
</glyph>
<glyph name="uniA4FD" format="2">
  <advance width="569"/>
  <unicode hex="A4FD"/>
  <outline>
    <contour>
      <point x="453" y="600" type="line"/>
      <point x="152" y="600" type="line"/>
      <point x="152" y="887" type="line"/>
      <point x="453" y="887" type="line"/>
    </contour>
    <contour>
      <point x="453" y="0" type="line"/>
      <point x="152" y="0" type="line"/>
      <point x="152" y="287" type="line"/>
      <point x="453" y="287" type="line"/>
    </contour>
  </outline>
</glyph>
